<svg width="1440" height="460" viewBox="0 0 1440 460" fill="none" xmlns="http://www.w3.org/2000/svg">
  <rect width="1440" height="460" rx="32" fill="#F6F1E8"/>
  <rect x="24" y="24" width="1392" height="412" rx="30" fill="#F1E9DA"/>
  <rect x="34" y="34" width="1372" height="392" rx="28" fill="#FFFDF8"/>

  <text x="72" y="88" fill="#194D3D" font-family="'Red Hat Display', Arial, Helvetica, sans-serif" font-size="24" font-weight="700">Hōʻike Demo Proof Strip</text>
  <text x="72" y="122" fill="#5A544B" font-family="'Lexend Deca', Arial, Helvetica, sans-serif" font-size="17">Dynamic Hōʻike flow for judges: paste an activity, translate it, explore pathways, meet Local Voices, and take one next step.</text>

  <g transform="translate(68 158)">
    <rect width="244" height="212" rx="28" fill="#FFE5D7"/>
    <rect x="18" y="18" width="86" height="28" rx="14" fill="#FDEDDD"/>
    <rect x="18" y="166" width="146" height="10" rx="5" fill="#FCEFE5"/>
    <rect x="18" y="184" width="112" height="10" rx="5" fill="#FCEFE5"/>
    <text x="28" y="38" fill="#7E2A1F" font-family="'Lexend Deca', Arial, Helvetica, sans-serif" font-size="13" font-weight="700">📝 Step 1</text>
    <text x="18" y="82" fill="#1F2328" font-family="'Red Hat Display', Arial, Helvetica, sans-serif" font-size="21" font-weight="700">Paste an activity</text>
    <text x="18" y="116" fill="#5A544B" font-family="'Lexend Deca', Arial, Helvetica, sans-serif" font-size="13">Assignment, hobby, or interest</text>
    <text x="18" y="134" fill="#5A544B" font-family="'Lexend Deca', Arial, Helvetica, sans-serif" font-size="13">becomes the starting signal.</text>
  </g>

  <g transform="translate(330 158)">
    <rect width="244" height="212" rx="28" fill="#F8DDE8"/>
    <rect x="18" y="18" width="86" height="28" rx="14" fill="#FCEAF0"/>
    <rect x="18" y="166" width="88" height="10" rx="5" fill="#FCEFF4"/>
    <rect x="114" y="166" width="94" height="10" rx="5" fill="#FCEFF4"/>
    <text x="28" y="38" fill="#7E2A1F" font-family="'Lexend Deca', Arial, Helvetica, sans-serif" font-size="13" font-weight="700">🌺 Step 2</text>
    <text x="18" y="82" fill="#1F2328" font-family="'Red Hat Display', Arial, Helvetica, sans-serif" font-size="21" font-weight="700">Professional Why</text>
    <text x="18" y="116" fill="#5A544B" font-family="'Lexend Deca', Arial, Helvetica, sans-serif" font-size="13">Hōʻike translation surfaces</text>
    <text x="18" y="134" fill="#5A544B" font-family="'Lexend Deca', Arial, Helvetica, sans-serif" font-size="13">strengths, signals, and local value.</text>
  </g>

  <g transform="translate(592 158)">
    <rect width="244" height="212" rx="28" fill="#FFF0B8"/>
    <rect x="18" y="18" width="86" height="28" rx="14" fill="#FFF6D9"/>
    <rect x="18" y="166" width="100" height="10" rx="5" fill="#FFF7DD"/>
    <rect x="126" y="166" width="68" height="10" rx="5" fill="#FFF7DD"/>
    <text x="28" y="38" fill="#7E2A1F" font-family="'Lexend Deca', Arial, Helvetica, sans-serif" font-size="13" font-weight="700">🧭 Step 3</text>
    <text x="18" y="82" fill="#1F2328" font-family="'Red Hat Display', Arial, Helvetica, sans-serif" font-size="21" font-weight="700">Explore pathways</text>
    <text x="18" y="116" fill="#5A544B" font-family="'Lexend Deca', Arial, Helvetica, sans-serif" font-size="13">Compare culturally grounded options</text>
    <text x="18" y="134" fill="#5A544B" font-family="'Lexend Deca', Arial, Helvetica, sans-serif" font-size="13">and different ways in.</text>
  </g>

  <g transform="translate(854 158)">
    <rect width="244" height="212" rx="28" fill="#DDF4EC"/>
    <rect x="18" y="18" width="86" height="28" rx="14" fill="#EAF8F2"/>
    <circle cx="202" cy="184" r="20" fill="#EEF9F5"/>
    <text x="28" y="38" fill="#7E2A1F" font-family="'Lexend Deca', Arial, Helvetica, sans-serif" font-size="13" font-weight="700">🎥 Step 4</text>
    <text x="18" y="82" fill="#1F2328" font-family="'Red Hat Display', Arial, Helvetica, sans-serif" font-size="20" font-weight="700">Meet Local Voices</text>
    <text x="18" y="116" fill="#5A544B" font-family="'Lexend Deca', Arial, Helvetica, sans-serif" font-size="13">School-safe profiles make local</text>
    <text x="18" y="134" fill="#5A544B" font-family="'Lexend Deca', Arial, Helvetica, sans-serif" font-size="13">futures feel more reachable.</text>
    <text x="194" y="191" fill="#194D3D" font-family="'Red Hat Display', Arial, Helvetica, sans-serif" font-size="20" font-weight="700">→</text>
  </g>

  <g transform="translate(1116 158)">
    <rect width="244" height="212" rx="28" fill="#E5ECF8"/>
    <rect x="18" y="18" width="86" height="28" rx="14" fill="#EFF4FB"/>
    <circle cx="198" cy="184" r="18" stroke="#194D3D" stroke-width="8"/>
    <text x="28" y="38" fill="#7E2A1F" font-family="'Lexend Deca', Arial, Helvetica, sans-serif" font-size="13" font-weight="700">💬✅ Steps 5–6</text>
    <text x="18" y="82" fill="#1F2328" font-family="'Red Hat Display', Arial, Helvetica, sans-serif" font-size="20" font-weight="700">Ask + take next steps</text>
    <text x="18" y="116" fill="#5A544B" font-family="'Lexend Deca', Arial, Helvetica, sans-serif" font-size="13">Track progress, save ideas, and</text>
    <text x="18" y="134" fill="#5A544B" font-family="'Lexend Deca', Arial, Helvetica, sans-serif" font-size="13">send guided questions to review.</text>
  </g>
</svg>
