<svg width="64" height="64" viewBox="0 0 64 64" fill="none" xmlns="http://www.w3.org/2000/svg">
  <path d="M18 20C18 10 27 5 35 8C43 11 44 21 39 27C34 33 18 30 18 20Z" fill="#FFB35D"/>
  <path d="M20 29C10 31 6 40 11 47C16 54 27 54 32 47C37 40 31 27 20 29Z" fill="#FFB35D"/>
  <path d="M31 30C39 23 50 25 54 33C58 41 54 51 45 53C36 55 25 43 31 30Z" fill="#FFAA55"/>
  <path d="M27 22C34 15 45 15 50 22C55 29 51 38 42 40C33 42 22 33 27 22Z" fill="#FFAB5F"/>
  <circle cx="32" cy="31" r="7" fill="#FF5B73"/>
  <path d="M39 27C43 26 47 24 50 21" stroke="#F48A45" stroke-width="2.8" stroke-linecap="round"/>
  <path d="M28 36C24 40 22 45 22 51" stroke="#F2C95E" stroke-width="3" stroke-linecap="round"/>
</svg>
