<svg width="64" height="64" viewBox="0 0 64 64" fill="none" xmlns="http://www.w3.org/2000/svg">
  <path d="M10 24C10 13.5 18.5 5 29 5H35C45.5 5 54 13.5 54 24V44C54 54.5 45.5 63 35 63H29C18.5 63 10 54.5 10 44V24Z" fill="#B65A18"/>
  <path d="M7 20.5C7 11.9 13.9 5 22.5 5H41.5C50.1 5 57 11.9 57 20.5C57 21.9 56.1 23.1 54.8 23.5L36.1 29.4C33.4 30.3 30.5 30.3 27.8 29.4L9.2 23.5C7.9 23.1 7 21.9 7 20.5Z" fill="#A55014"/>
  <circle cx="23.5" cy="33" r="10.5" fill="#F3E6EB"/>
  <circle cx="40.5" cy="33" r="10.5" fill="#F3E6EB"/>
  <circle cx="23.5" cy="33" r="2.7" fill="#55636C"/>
  <circle cx="40.5" cy="33" r="2.7" fill="#55636C"/>
  <path d="M31.6 26.5C32.5 25.3 34.3 25.3 35.2 26.5L38.1 30.3C38.7 31.1 38.7 32.2 38.1 33L34.3 37.9C33.4 39.1 31.6 39.1 30.7 37.9L26.9 33C26.3 32.2 26.3 31.1 26.9 30.3L31.6 26.5Z" fill="#F7AB00"/>
  <path d="M24 45C26.1 47.1 28.9 48.3 32 48.3C35.1 48.3 37.9 47.1 40 45" stroke="#F7C25D" stroke-width="3" stroke-linecap="round"/>
</svg>
