<svg width="64" height="64" viewBox="0 0 64 64" fill="none" xmlns="http://www.w3.org/2000/svg">
  <path d="M31 58C34 47 34 36 31 24" stroke="#5CCB99" stroke-width="3.4" stroke-linecap="round"/>
  <path d="M29 16C35 8 44 6 51 11C56 15 57 23 53 28L31 58L29 16Z" fill="#9D2940"/>
  <path d="M23 23C28 16 35 14 41 18C46 21 46 28 42 33L29 51L23 23Z" fill="#D00957"/>
  <path d="M18 31C22 26 28 24 33 27C38 30 38 36 35 41L25 54L18 31Z" fill="#C4044F"/>
  <path d="M15 41C18 36 23 34 28 36C32 38 33 43 30 47L23 58L15 41Z" fill="#FF4662"/>
</svg>
